<svg width="59px" height="36px" viewBox="0 0 59 36" version="1.1" xmlns="http://www.w3.org/2000/svg" xmlns:xlink="http://www.w3.org/1999/xlink">
    <g id="Page-1" stroke="none" stroke-width="1" fill="none" fill-rule="evenodd">
        <g id="icon" transform="translate(-0.002534, -0.002281)" fill-rule="nonzero">
            <g id="Group_2718">
                <rect id="Rectangle_1539" fill="#FF5F00" x="21.2515337" y="3.85028097" width="15.75" height="28.303"></rect>
                <path d="M22.2505337,18.002281 C22.2454178,12.4790455 24.7806656,7.26030702 29.1255337,3.85028097 C21.7459177,-1.95199224 11.1462567,-1.10865172 4.77696715,5.78752525 C-1.59232238,12.6837022 -1.59232238,23.3168597 4.77696715,30.2130367 C11.1462567,37.1092136 21.7459177,37.9525542 29.1255337,32.150281 C24.7817714,28.7411212 22.2466475,23.5241127 22.2505337,18.002281 Z" id="Path_1724" fill="#EB001B"></path>
                <path d="M58.2485339,18.002281 C58.24944,24.8947033 54.3144572,31.182481 48.1150924,34.1946834 C41.9157277,37.2068859 34.5406031,36.4145639 29.1225337,32.154281 C33.4629506,28.7415986 35.997,23.5256594 35.997,18.004281 C35.997,12.4829025 33.4629506,7.26696328 29.1225337,3.85428097 C34.5400358,-0.405555866 41.9142432,-1.19819373 48.1132934,1.8130046 C54.3123437,4.82420294 58.2479084,11.1105803 58.2485339,18.002281 Z" id="Path_1725" fill="#F79E1B"></path>
                <path d="M56.5315337,29.156281 L56.5315337,28.577281 L56.7655337,28.577281 L56.7655337,28.459281 L56.1655337,28.459281 L56.1655337,28.577281 L56.3995337,28.577281 L56.3995337,29.156281 L56.5315337,29.156281 Z M57.6865337,29.156281 L57.6865337,28.456281 L57.5045337,28.456281 L57.2945337,28.937281 L57.0845337,28.456281 L56.9025337,28.456281 L56.9025337,29.156281 L57.0315337,29.156281 L57.0315337,28.629281 L57.2315337,29.083281 L57.3655337,29.083281 L57.5655337,28.627281 L57.5655337,29.155281 L57.6865337,29.156281 Z" id="Path_1726" fill="#F79E1B"></path>
            </g>
        </g>
    </g>
</svg>