<svg width="72" height="40" viewBox="0 0 72 40" xmlns="http://www.w3.org/2000/svg">
  <defs>
    <style>
    </style>
  </defs>
  <g id="Page-1" fill="none" fill-rule="evenodd">
    <g id="cogs">
      <g id="Layer_1">
        <path class=".cls-1" d="M71.374 22.193a24.61 24.61 0 0 0-3.34-1.199 15.69 15.69 0 0 0 0-2.845 24.7 24.7 0 0 0 3.34-1.202c.211-.093.397-.237.54-.419a19.86 19.86 0 0 0-.436-2.101 20.774 20.774 0 0 0-.6-1.873 1.387 1.387 0 0 0-.712-.096c-1.178.13-2.345.343-3.492.64a15.44 15.44 0 0 0-1.418-2.455 24.9 24.9 0 0 0 2.302-2.726c.138-.19.227-.41.26-.642a19.226 19.226 0 0 0-2.874-2.918 1.39 1.39 0 0 0-.666.273 24.838 24.838 0 0 0-2.71 2.314 15.3 15.3 0 0 0-2.443-1.425 25.05 25.05 0 0 0 .637-3.511 1.42 1.42 0 0 0-.086-.692c-.663-.26-1.34-.484-2.028-.671a18.27 18.27 0 0 0-1.912-.414 1.4 1.4 0 0 0-.44.57 25.014 25.014 0 0 0-1.174 3.36 15.438 15.438 0 0 0-2.83 0A25.007 25.007 0 0 0 50.1.81a1.424 1.424 0 0 0-.42-.549c-.7.104-1.396.247-2.082.427-.636.173-1.257.374-1.862.603a1.409 1.409 0 0 0-.096.715c.128 1.176.339 2.342.631 3.488-.862.397-1.686.875-2.46 1.425a24.796 24.796 0 0 0-2.688-2.291 1.413 1.413 0 0 0-.639-.26 19.257 19.257 0 0 0-2.902 2.89c.03.242.124.473.272.668.691.95 1.45 1.85 2.268 2.692a15.422 15.422 0 0 0-1.436 2.476c-1.13-.29-2.28-.5-3.44-.627-.233-.03-.47 0-.688.086-.26.664-.483 1.342-.67 2.03-.173.64-.31 1.281-.411 1.923.147.194.342.347.566.442 1.065.473 2.162.869 3.283 1.186a15.69 15.69 0 0 0 0 2.877c-1.12.316-2.216.711-3.28 1.183a1.418 1.418 0 0 0-.551.421c.105.705.248 1.404.43 2.094.172.64.372 1.264.6 1.873.224.094.47.127.71.096a24.567 24.567 0 0 0 3.42-.622c.402.878.884 1.716 1.441 2.502a24.77 24.77 0 0 0-2.245 2.669 1.43 1.43 0 0 0-.259.642 19.226 19.226 0 0 0 2.874 2.918 1.39 1.39 0 0 0 .665-.273 24.735 24.735 0 0 0 2.639-2.263c.78.559 1.61 1.042 2.48 1.444a24.951 24.951 0 0 0-.618 3.438c-.029.234 0 .472.086.692.663.26 1.34.485 2.028.671a18.27 18.27 0 0 0 1.911.414 1.4 1.4 0 0 0 .44-.57c.47-1.07.862-2.172 1.177-3.298.952.089 1.91.089 2.861 0 .316 1.127.71 2.23 1.18 3.3.092.217.236.408.419.555a19.568 19.568 0 0 0 2.09-.44 20.504 20.504 0 0 0 1.863-.603c.093-.226.126-.473.095-.716a24.98 24.98 0 0 0-.623-3.459 15.3 15.3 0 0 0 2.463-1.443 24.77 24.77 0 0 0 2.677 2.28c.188.139.408.228.639.26a19.257 19.257 0 0 0 2.902-2.89 1.406 1.406 0 0 0-.271-.667 24.859 24.859 0 0 0-2.28-2.702 15.418 15.418 0 0 0 1.418-2.474c1.14.294 2.3.506 3.47.635.232.029.469 0 .687-.086.26-.667.482-1.348.668-2.039.172-.64.31-1.28.411-1.922a1.395 1.395 0 0 0-.569-.437zm-18.667 4.096c-3.69 0-6.682-3.007-6.682-6.718 0-3.71 2.992-6.718 6.682-6.718 3.69 0 6.682 3.008 6.682 6.718 0 1.782-.704 3.49-1.957 4.75a6.664 6.664 0 0 1-4.725 1.968z" id="Shape" fill="#F99F1C"/>
        <path class=".cls-2" d="M38.834 17.524a1.39 1.39 0 0 0-.662-.278 24.672 24.672 0 0 0-3.544-.291 15.47 15.47 0 0 0-.725-2.744 24.792 24.792 0 0 0 2.92-2.031c.186-.145.333-.333.428-.549a19.808 19.808 0 0 0-.963-1.917 18.257 18.257 0 0 0-1.065-1.651 1.387 1.387 0 0 0-.712.09 24.728 24.728 0 0 0-3.21 1.527 15.564 15.564 0 0 0-1.997-2.013 24.977 24.977 0 0 0 1.516-3.22c.088-.218.12-.455.096-.689a19.65 19.65 0 0 0-1.788-1.175 17.802 17.802 0 0 0-1.74-.898 1.395 1.395 0 0 0-.573.437 24.902 24.902 0 0 0-2.007 2.913c-.89-.332-1.807-.58-2.742-.741a25.027 25.027 0 0 0-.287-3.53A1.43 1.43 0 0 0 21.52.12 19.156 19.156 0 0 0 17.433.1a1.406 1.406 0 0 0-.277.665 25.006 25.006 0 0 0-.29 3.516c-.94.157-1.863.402-2.757.73a24.865 24.865 0 0 0-1.992-2.889 1.419 1.419 0 0 0-.546-.426A19.62 19.62 0 0 0 8.019 3.73c-.032.242 0 .488.09.715a24.91 24.91 0 0 0 1.488 3.173 15.563 15.563 0 0 0-2.025 2.031A24.652 24.652 0 0 0 4.42 8.154a1.41 1.41 0 0 0-.686-.091A19.777 19.777 0 0 0 2.566 9.86a18.094 18.094 0 0 0-.89 1.748c.093.226.243.424.435.574.9.73 1.852 1.396 2.845 1.993a15.46 15.46 0 0 0-.74 2.782 24.57 24.57 0 0 0-3.455.29 1.413 1.413 0 0 0-.642.26 19.466 19.466 0 0 0-.02 4.11c.192.148.42.244.662.277a24.57 24.57 0 0 0 3.463.291c.16.949.408 1.88.74 2.783A24.692 24.692 0 0 0 2.12 26.96c-.185.145-.33.334-.425.55a19.49 19.49 0 0 0 2.023 3.568c.241.032.487 0 .712-.092a24.65 24.65 0 0 0 3.15-1.495c.612.738 1.29 1.418 2.026 2.031a24.904 24.904 0 0 0-1.487 3.173 1.439 1.439 0 0 0-.096.69 19.47 19.47 0 0 0 3.528 2.073c.226-.094.423-.244.572-.438a24.86 24.86 0 0 0 1.992-2.89c.892.326 1.813.567 2.75.721.013 1.178.11 2.353.29 3.517.031.233.12.454.258.645a19.156 19.156 0 0 0 4.085.02c.148-.193.244-.423.277-.665.18-1.164.28-2.34.295-3.517.934-.16 1.852-.409 2.742-.74a24.952 24.952 0 0 0 2.007 2.915c.144.185.332.331.546.426a19.36 19.36 0 0 0 3.55-2.034 1.409 1.409 0 0 0-.092-.715 24.977 24.977 0 0 0-1.515-3.233 15.564 15.564 0 0 0 1.997-2.013 24.73 24.73 0 0 0 3.205 1.524c.217.089.452.122.685.096a19.654 19.654 0 0 0 2.062-3.548 1.401 1.401 0 0 0-.435-.574 24.792 24.792 0 0 0-2.92-2.031c.325-.89.567-1.809.724-2.744a24.67 24.67 0 0 0 3.544-.291c.232-.032.452-.122.642-.26a19.872 19.872 0 0 0 .023-4.105zM19.466 26.29c-3.69 0-6.682-3.007-6.682-6.718 0-3.71 2.992-6.718 6.682-6.718 3.69 0 6.682 3.008 6.682 6.718s-2.992 6.718-6.682 6.718z" id="Shape" fill="#ED1C24"/>
      </g>
    </g>
  </g>
</svg>
